<svg width="48" height="48" viewBox="0 0 48 48" fill="none" xmlns="http://www.w3.org/2000/svg">
  <path d="M48 0H0V48H48V0Z" fill="#B2BCFF"/>
  <path d="M37.7895 34.4728H41.9997L32.0901 13.5341H27.8811L37.7895 34.4728Z" fill="#15063b"/>
  <path d="M35.3635 24.0168H27.1288L25.6274 27.1902H35.3635V24.0168Z" fill="#15063b"/>
  <path d="M22.5799 30.3907H22.5855L18.4722 24.3607C18.2028 23.9596 18.2028 23.4399 18.4722 23.0388L24.9539 13.5271H20.4741L18.3519 16.6444C18.2562 16.7823 18.0934 17.0155 17.8788 17.3497C17.6628 17.6854 17.3509 18.1696 16.938 18.8041C16.5237 19.4385 16.123 20.0661 15.7264 20.6704C14.5272 18.7495 13.6644 17.4043 13.1297 16.6444L11.043 13.5271H6.4444L12.9506 23.1234C13.22 23.5245 13.22 24.051 12.9451 24.4507L6 34.4659H10.5097L12.8357 31.0852C13.8791 29.5354 14.8089 28.1179 15.6361 26.8191C16.4635 28.111 17.3934 29.5354 18.4366 31.0852L20.7326 34.4659H25.3641L22.6265 30.4522C22.6115 30.4317 22.5936 30.4111 22.5799 30.3907Z" fill="#15063b"/>
</svg>
